<svg width="640" height="574" viewBox="0 0 640 574" fill="none" xmlns="http://www.w3.org/2000/svg">
<path d="M40.5083 416.246C42.5045 415.721 44.4071 415.041 46.1635 414.207C51.1316 411.842 54.0791 408.633 54.9207 405.253C55.2866 404.392 55.6281 399.366 55.624 396.975C55.7744 396.315 55.8516 395.648 55.8516 394.981C55.8516 393.937 55.6687 392.895 55.2947 391.867C55.3597 391.256 55.4126 390.577 55.4654 389.887C56.494 390.402 57.4698 390.971 58.3764 391.588C67.7718 398.01 66.1863 407.529 54.8353 412.85C50.599 414.837 45.6024 415.958 40.5083 416.246Z" fill="#DCE7F5"/>
<path d="M55.5647 395.816C55.7843 396.801 55.3691 404.192 54.922 405.253C54.0757 408.633 51.1336 411.842 46.1635 414.207C35.2533 419.394 18.7543 418.552 9.30119 412.331C4.89799 409.431 2.5028 406.484 2.44692 402.802C2.30719 400.812 2.24731 395.254 2.24731 395.254C2.42296 394.637 2.87405 394.659 3.38902 394.682C3.89201 394.705 4.45487 394.728 4.89 394.17C6.36306 391.937 8.83414 389.883 12.2912 388.238C23.1974 383.051 39.7005 383.889 49.1536 390.113C53.1336 392.731 55.2893 392.652 55.5647 395.816Z" fill="#88BDEB"/>
<path d="M49.4784 386.184C40.0847 379.763 23.2668 378.869 11.9158 384.187C0.568785 389.508 -1.01955 399.028 8.37412 405.45C17.7718 411.871 34.5857 412.764 45.9407 407.446C57.2877 402.125 58.8721 392.606 49.4784 386.184Z" fill="white"/>
<path d="M49.4784 385.36C40.0847 378.938 23.2668 378.045 11.9158 383.366C0.568785 388.684 -1.01955 398.203 8.37412 404.625C17.7718 411.05 34.5857 411.943 45.9407 406.622C57.2877 401.301 58.8721 391.781 49.4784 385.36Z" fill="#E0EEFF"/>
<path d="M49.4767 385.361L49.6125 385.157C44.2826 381.514 36.6292 379.649 28.9198 379.649C22.8913 379.649 16.8308 380.789 11.8084 383.144C8.59449 384.648 6.15111 386.494 4.49826 388.524C2.84939 390.551 1.99902 392.775 1.99902 395.008C1.99902 396.752 2.51804 398.5 3.55606 400.165C4.59409 401.827 6.15114 403.407 8.23517 404.83C13.565 408.472 21.2185 410.341 28.9318 410.341C34.9563 410.341 41.0208 409.198 46.0393 406.846C49.2531 405.339 51.7005 403.496 53.3494 401.466C54.9982 399.436 55.8486 397.216 55.8486 394.982C55.8486 393.234 55.3336 391.487 54.2916 389.825C53.2535 388.163 51.6965 386.583 49.6125 385.157L49.4767 385.361L49.337 385.564C51.3731 386.957 52.8822 388.491 53.8763 390.084C54.8705 391.681 55.3576 393.333 55.3576 394.982C55.3576 397.087 54.5591 399.196 52.9701 401.154C51.3771 403.115 48.9896 404.918 45.8316 406.4C40.893 408.715 34.8925 409.849 28.9318 409.849C21.2983 409.852 13.7287 407.99 8.51464 404.426C6.47452 403.033 4.96935 401.499 3.97125 399.902C2.97714 398.309 2.49406 396.654 2.49406 395.008C2.49406 392.899 3.28856 390.794 4.87753 388.833C6.4705 386.875 8.85798 385.069 12.02 383.59C16.9546 381.275 22.9552 380.138 28.9198 380.141C36.5493 380.138 44.1229 381.997 49.337 385.564L49.4767 385.361Z" fill="#3072FF"/>
<path d="M43.2689 387.864C36.7027 383.374 24.9468 382.75 17.012 386.468C9.07715 390.187 7.96961 396.841 14.5358 401.332C21.106 405.822 32.8618 406.446 40.7927 402.728C48.7275 399.009 49.839 392.355 43.2689 387.864Z" fill="white"/>
<path d="M43.2698 387.864L43.4118 387.661C39.6659 385.102 34.3033 383.798 28.9014 383.795C24.6784 383.795 20.4278 384.596 16.9067 386.245C14.6552 387.303 12.936 388.597 11.7728 390.026C10.6096 391.458 10.0063 393.025 10.0063 394.608C10.0063 395.843 10.3731 397.078 11.1065 398.251C11.8359 399.423 12.936 400.537 14.3989 401.536C18.1448 404.094 23.5073 405.398 28.9053 405.402C33.1283 405.402 37.375 404.6 40.9 402.951C43.1555 401.893 44.8746 400.599 46.0378 399.171C47.201 397.738 47.8004 396.172 47.8004 394.588C47.8004 393.353 47.4336 392.118 46.7002 390.946C45.9668 389.773 44.8707 388.659 43.4118 387.661L43.2698 387.864L43.1318 388.068C44.5513 389.037 45.5922 390.101 46.2823 391.205C46.9723 392.312 47.3075 393.452 47.3075 394.588C47.3075 396.043 46.7554 397.499 45.6514 398.858C44.5513 400.215 42.8913 401.473 40.6911 402.504C37.2527 404.117 33.0652 404.909 28.9053 404.909C23.5862 404.909 18.3025 403.611 14.6749 401.128C13.2594 400.159 12.2105 399.095 11.5244 397.991C10.8344 396.884 10.4992 395.745 10.4992 394.608C10.4992 393.153 11.0513 391.698 12.1514 390.338C13.2554 388.981 14.9154 387.723 17.1156 386.692C20.554 385.079 24.7415 384.287 28.9014 384.287C34.2245 384.287 39.5042 385.585 43.1318 388.068L43.2698 387.864Z" fill="#3072FF"/>
<path d="M29.0635 411.192L29.1324 417.611C29.1324 417.749 29.2474 417.857 29.3815 417.854C29.5194 417.854 29.6268 417.742 29.6268 417.607L29.5578 411.189C29.5578 411.051 29.4467 410.943 29.3087 410.943C29.1746 410.946 29.0635 411.058 29.0635 411.192Z" fill="#3072FF"/>
<path d="M35.9307 410.712L35.9539 416.957C35.9578 417.094 36.0662 417.203 36.2018 417.203C36.3374 417.203 36.4497 417.091 36.4458 416.957L36.4226 410.712C36.4226 410.574 36.3103 410.466 36.1747 410.466C36.0391 410.466 35.9307 410.578 35.9307 410.712Z" fill="#3072FF"/>
<path d="M42.4475 409.136L42.4749 415.381C42.4749 415.515 42.5884 415.627 42.7214 415.627C42.8584 415.623 42.968 415.515 42.968 415.377L42.9406 409.133C42.9406 408.998 42.8349 408.887 42.694 408.89C42.561 408.89 42.4475 408.998 42.4475 409.136Z" fill="#3072FF"/>
<path d="M48.3052 406.468L48.3249 412.226C48.3289 412.364 48.4394 412.472 48.5777 412.472C48.712 412.472 48.8226 412.36 48.8186 412.226L48.7949 406.468C48.7949 406.33 48.6883 406.221 48.55 406.221C48.4157 406.221 48.3052 406.333 48.3052 406.468Z" fill="#3072FF"/>
<path d="M53.0877 402.419L52.9564 408.272C52.9524 408.407 53.0598 408.519 53.1991 408.522C53.3304 408.525 53.4458 408.42 53.4458 408.282L53.5811 402.432C53.5851 402.294 53.4776 402.183 53.3424 402.179C53.2031 402.176 53.0917 402.284 53.0877 402.419Z" fill="#3072FF"/>
<path d="M21.8848 410.712L21.8621 416.956C21.8621 417.09 21.9719 417.202 22.1044 417.202C22.2445 417.202 22.3543 417.094 22.3543 416.956L22.377 410.712C22.3808 410.577 22.271 410.465 22.1347 410.465C21.9984 410.465 21.8886 410.574 21.8848 410.712Z" fill="#3072FF"/>
<path d="M15.3671 409.132L15.3408 415.376C15.3408 415.514 15.4457 415.622 15.5843 415.625C15.7192 415.625 15.8316 415.514 15.8316 415.379L15.8578 409.135C15.8578 408.997 15.7492 408.889 15.6106 408.889C15.4757 408.885 15.3671 408.997 15.3671 409.132Z" fill="#3072FF"/>
<path d="M9.5096 406.469L9.4873 412.227C9.4873 412.362 9.59496 412.474 9.73229 412.474C9.86961 412.474 9.98097 412.365 9.98097 412.227L10.0032 406.469C10.0032 406.334 9.8956 406.223 9.75828 406.223C9.62095 406.223 9.5096 406.331 9.5096 406.469Z" fill="#3072FF"/>
<path d="M4.72299 402.431L4.85552 408.281C4.85921 408.419 4.97336 408.524 5.10958 408.521C5.24581 408.518 5.35258 408.406 5.3489 408.271L5.21633 402.418C5.21265 402.283 5.09854 402.175 4.96231 402.178C4.82608 402.182 4.71931 402.293 4.72299 402.431Z" fill="#3072FF"/>
<path d="M55.5647 384.723C55.7843 385.709 55.3691 393.099 54.922 394.16C54.0757 397.54 51.1336 400.749 46.1635 403.111C35.2533 408.301 18.7543 407.46 9.30119 401.239C4.89799 398.338 2.5028 395.389 2.44692 391.71C2.30719 389.716 2.24731 384.158 2.24731 384.158C2.42296 383.541 2.87405 383.567 3.38902 383.59C3.89201 383.613 4.45487 383.636 4.89 383.077C6.36306 380.844 8.83414 378.788 12.2912 377.145C23.1974 371.955 39.7005 372.796 49.1536 379.017C53.1336 381.639 55.2893 381.56 55.5647 384.723Z" fill="#88BDEB"/>
<path d="M49.4784 375.092C40.0847 368.667 23.2668 367.773 11.9158 373.095C0.568785 378.416 -1.01955 387.935 8.37412 394.357C17.7718 400.778 34.5857 401.672 45.9407 396.35C57.2877 391.032 58.8721 381.513 49.4784 375.092Z" fill="white"/>
<path d="M49.4784 374.267C40.0847 367.845 23.2668 366.952 11.9158 372.27C0.568785 377.591 -1.01955 387.11 8.37412 393.532C17.7718 399.954 34.5857 400.847 45.9407 395.529C57.2877 390.208 58.8721 380.689 49.4784 374.267Z" fill="#E0EEFF"/>
<path d="M49.4767 374.268L49.6125 374.065C44.2826 370.422 36.6292 368.556 28.9198 368.553C22.8913 368.553 16.8308 369.696 11.8084 372.048C8.59449 373.555 6.15111 375.398 4.49826 377.428C2.84939 379.458 1.99902 381.679 1.99902 383.915C1.99902 385.66 2.51804 387.407 3.55606 389.069C4.59409 390.735 6.15114 392.315 8.23517 393.737C13.565 397.38 21.2185 399.245 28.9318 399.249C34.9563 399.249 41.0208 398.106 46.0393 395.754C49.2531 394.246 51.7005 392.404 53.3494 390.373C54.9982 388.343 55.8486 386.123 55.8486 383.886C55.8486 382.142 55.3336 380.394 54.2916 378.732C53.2535 377.067 51.6965 375.487 49.6125 374.065L49.4767 374.268L49.337 374.472C51.3731 375.865 52.8822 377.399 53.8763 378.992C54.8705 380.588 55.3576 382.241 55.3576 383.886C55.3576 385.995 54.5591 388.104 52.9701 390.061C51.3771 392.019 48.9896 393.826 45.8316 395.307C40.893 397.623 34.8925 398.756 28.9318 398.756C21.2983 398.756 13.7287 396.897 8.51464 393.33C6.47452 391.937 4.96935 390.403 3.97125 388.81C2.97714 387.217 2.49406 385.561 2.49406 383.915C2.49406 381.807 3.28856 379.701 4.87753 377.74C6.4705 375.783 8.85798 373.976 12.02 372.494C16.9546 370.179 22.9552 369.046 28.9198 369.046C36.5493 369.046 44.1229 370.905 49.337 374.472L49.4767 374.268Z" fill="#3072FF"/>
<path d="M43.2689 376.772C36.7027 372.282 24.9468 371.658 17.012 375.376C9.07715 379.094 7.96961 385.749 14.5358 390.239C21.106 394.729 32.8618 395.354 40.7927 391.635C48.7275 387.914 49.839 381.259 43.2689 376.772Z" fill="white"/>
<path d="M43.2698 376.772L43.4118 376.568C39.6659 374.009 34.3033 372.702 28.9014 372.702C24.6784 372.702 20.4278 373.501 16.9067 375.153C14.6552 376.21 12.936 377.504 11.7728 378.933C10.6096 380.362 10.0063 381.932 10.0063 383.515C10.0063 384.747 10.3731 385.985 11.1065 387.158C11.8359 388.331 12.936 389.441 14.3989 390.443C18.1448 393.002 23.5073 394.306 28.9053 394.309C33.1283 394.306 37.375 393.507 40.9 391.859C43.1555 390.801 44.8746 389.507 46.0378 388.075C47.201 386.646 47.8004 385.076 47.8004 383.496C47.8004 382.261 47.4336 381.023 46.7002 379.85C45.9668 378.677 44.8707 377.567 43.4118 376.568L43.2698 376.772L43.1318 376.972C44.5513 377.941 45.5922 379.009 46.2823 380.112C46.9723 381.216 47.3075 382.359 47.3075 383.496C47.3075 384.951 46.7554 386.406 45.6514 387.766C44.5513 389.123 42.8913 390.381 40.6911 391.412C37.2527 393.025 33.0652 393.816 28.9053 393.816C23.5862 393.816 18.3025 392.519 14.6749 390.036C13.2594 389.067 12.2105 388.003 11.5244 386.896C10.8344 385.792 10.4992 384.652 10.4992 383.515C10.4992 382.06 11.0513 380.605 12.1514 379.245C13.2554 377.885 14.9154 376.631 17.1156 375.599C20.554 373.987 24.7415 373.195 28.9014 373.195C34.2205 373.192 39.5042 374.492 43.1318 376.972L43.2698 376.772Z" fill="#3072FF"/>
<path d="M29.0635 400.099L29.1324 406.518C29.1324 406.652 29.2474 406.764 29.3815 406.761C29.5194 406.761 29.6268 406.649 29.6268 406.511L29.5578 400.093C29.5578 399.958 29.4467 399.85 29.3087 399.85C29.1746 399.853 29.0635 399.965 29.0635 400.099Z" fill="#3072FF"/>
<path d="M35.9307 399.62L35.9539 405.864C35.9578 406.002 36.0662 406.11 36.2018 406.11C36.3374 406.11 36.4497 405.998 36.4458 405.864L36.4226 399.616C36.4226 399.482 36.3103 399.373 36.1747 399.373C36.0391 399.373 35.9307 399.485 35.9307 399.62Z" fill="#3072FF"/>
<path d="M42.4475 398.044L42.4749 404.288C42.4749 404.423 42.5884 404.534 42.7214 404.531C42.8584 404.531 42.968 404.419 42.968 404.284L42.9406 398.04C42.9406 397.905 42.8349 397.794 42.694 397.794C42.561 397.794 42.4475 397.905 42.4475 398.044Z" fill="#3072FF"/>
<path d="M48.3052 395.375L48.3249 401.133C48.3289 401.268 48.4394 401.38 48.5777 401.38C48.712 401.38 48.8226 401.268 48.8186 401.13L48.7949 395.372C48.7949 395.237 48.6883 395.129 48.55 395.129C48.4157 395.129 48.3052 395.24 48.3052 395.375Z" fill="#3072FF"/>
<path d="M53.0877 391.326L52.9564 397.177C52.9524 397.315 53.0598 397.426 53.1991 397.43C53.3304 397.433 53.4458 397.325 53.4458 397.19L53.5811 391.336C53.5851 391.202 53.4776 391.09 53.3424 391.087C53.2031 391.084 53.0917 391.192 53.0877 391.326Z" fill="#3072FF"/>
<path d="M21.8848 399.615L21.8621 405.863C21.8621 405.998 21.9719 406.11 22.1044 406.11C22.2445 406.11 22.3543 406.001 22.3543 405.863L22.377 399.619C22.3808 399.484 22.271 399.373 22.1347 399.373C21.9984 399.373 21.8886 399.481 21.8848 399.615Z" fill="#3072FF"/>
<path d="M15.3671 398.039L15.3408 404.283C15.3408 404.418 15.4457 404.53 15.5843 404.53C15.7192 404.533 15.8316 404.421 15.8316 404.286L15.8578 398.042C15.8578 397.904 15.7492 397.792 15.6106 397.792C15.4757 397.792 15.3671 397.904 15.3671 398.039Z" fill="#3072FF"/>
<path d="M9.5096 395.373L9.4873 401.131C9.4873 401.269 9.59496 401.381 9.73229 401.381C9.86961 401.381 9.98097 401.269 9.98097 401.134L10.0032 395.376C10.0032 395.242 9.8956 395.13 9.75828 395.13C9.62095 395.13 9.5096 395.238 9.5096 395.373Z" fill="#3072FF"/>
<path d="M4.72299 391.335L4.85552 397.189C4.85921 397.323 4.97336 397.432 5.10958 397.429C5.24581 397.425 5.35258 397.314 5.3489 397.176L5.21633 391.325C5.21265 391.191 5.09854 391.083 4.96231 391.086C4.82608 391.089 4.71931 391.201 4.72299 391.335Z" fill="#3072FF"/>
<path d="M55.5647 373.631C55.7843 374.616 55.3691 382.007 54.922 383.064C54.0757 386.448 51.1336 389.654 46.1635 392.018C35.2533 397.205 18.7543 396.368 9.30119 390.146C4.89799 387.246 2.5028 384.296 2.44692 380.614C2.30719 378.623 2.24731 373.065 2.24731 373.065C2.42296 372.448 2.87405 372.471 3.38902 372.497C3.89201 372.517 4.45487 372.54 4.89 371.985C6.36306 369.748 8.83414 367.695 12.2912 366.049C23.1974 360.863 39.7005 361.704 49.1536 367.925C53.1336 370.546 55.2893 370.464 55.5647 373.631Z" fill="#88BDEB"/>
<path d="M49.4784 363.996C40.0847 357.574 23.2668 356.681 11.9158 362.002C0.568785 367.32 -1.01955 376.839 8.37412 383.264C17.7718 389.686 34.5857 390.579 45.9407 385.258C57.2877 379.937 58.8721 370.418 49.4784 363.996Z" fill="white"/>
<path d="M49.4784 363.174C40.0847 356.749 23.2668 355.856 11.9158 361.177C0.568785 366.498 -1.01955 376.018 8.37412 382.44C17.7718 388.861 34.5857 389.755 45.9407 384.437C57.2877 379.115 58.8721 369.596 49.4784 363.174Z" fill="#E0EEFF"/>
<path d="M49.4767 363.176L49.6125 362.972C44.2826 359.329 36.6292 357.464 28.9198 357.46C22.8913 357.46 16.8308 358.603 11.8084 360.955C8.59449 362.463 6.15111 364.305 4.49826 366.336C2.84939 368.366 1.99902 370.586 1.99902 372.823C1.99902 374.567 2.51804 376.315 3.55606 377.977C4.59409 379.642 6.15114 381.222 8.23517 382.644C13.565 386.287 21.2185 388.153 28.9318 388.153C34.9563 388.153 41.0208 387.013 46.0393 384.658C49.2531 383.154 51.7005 381.307 53.3494 379.277C54.9982 377.251 55.8486 375.027 55.8486 372.794C55.8486 371.049 55.3336 369.302 54.2916 367.636C53.2535 365.974 51.6965 364.394 49.6125 362.972L49.4767 363.176L49.337 363.379C51.3731 364.769 52.8822 366.303 53.8763 367.899C54.8705 369.492 55.3576 371.148 55.3576 372.794C55.3576 374.902 54.5591 377.008 52.9701 378.969C51.3771 380.926 48.9896 382.733 45.8316 384.214C40.893 386.527 34.8925 387.663 28.9318 387.663C21.2983 387.663 13.7287 385.804 8.51464 382.237C6.47452 380.844 4.96935 379.31 3.97125 377.717C2.97714 376.121 2.49406 374.468 2.49406 372.823C2.49406 370.714 3.28856 368.605 4.87753 366.648C6.4705 364.69 8.85798 362.883 12.02 361.402C16.9546 359.086 22.9552 357.953 28.9198 357.953C36.5493 357.953 44.1229 359.812 49.337 363.379L49.4767 363.176Z" fill="#3072FF"/>
<path d="M43.2689 365.676C36.7027 361.189 24.9468 360.562 17.012 364.283C9.07715 368.001 7.96961 374.657 14.5358 379.147C21.106 383.637 32.8618 384.261 40.7927 380.539C48.7275 376.821 49.839 370.166 43.2689 365.676Z" fill="white"/>
<path d="M43.2698 365.676L43.4118 365.472C39.6659 362.917 34.3033 361.61 28.9014 361.61C24.6784 361.61 20.4278 362.408 16.9067 364.06C14.6552 365.115 12.936 366.412 11.7728 367.841C10.6096 369.269 10.0063 370.84 10.0063 372.42C10.0063 373.655 10.3731 374.893 11.1065 376.066C11.8359 377.238 12.936 378.349 14.3989 379.35C18.1448 381.906 23.5073 383.213 28.9053 383.213C33.1283 383.213 37.375 382.415 40.9 380.763C43.1555 379.708 44.8746 378.411 46.0378 376.982C47.201 375.553 47.8004 373.983 47.8004 372.4C47.8004 371.168 47.4336 369.93 46.7002 368.757C45.9668 367.585 44.8707 366.474 43.4118 365.472L43.2698 365.676L43.1318 365.88C44.5513 366.849 45.5922 367.916 46.2823 369.02C46.9723 370.124 47.3075 371.267 47.3075 372.4C47.3075 373.855 46.7554 375.314 45.6514 376.67C44.5513 378.03 42.8913 379.285 40.6911 380.319C37.2527 381.929 33.0652 382.72 28.9053 382.72C23.5862 382.724 18.3025 381.423 14.6749 378.943C13.2594 377.974 12.2105 376.907 11.5244 375.803C10.8344 374.699 10.4992 373.556 10.4992 372.42C10.4992 370.965 11.0513 369.509 12.1514 368.153C13.2554 366.793 14.9154 365.538 17.1156 364.507C20.554 362.891 24.7415 362.102 28.9014 362.102C34.2205 362.099 39.5042 363.4 43.1318 365.88L43.2698 365.676Z" fill="#3072FF"/>
<path d="M10.5244 371.932C10.6347 370.641 11.1745 369.357 12.1556 368.152C13.2587 366.792 14.9174 365.537 17.1198 364.505C20.5594 362.893 24.7396 362.101 28.9002 362.101C28.9041 362.101 28.9041 362.101 28.9041 362.101C34.2269 362.098 39.5064 363.398 43.1351 365.878L43.273 365.675L43.1351 365.878C44.5534 366.848 45.5975 367.915 46.287 369.019C46.878 369.964 47.2089 370.94 47.2917 371.916C46.7598 370.155 45.432 368.444 43.273 366.969C39.5852 364.45 34.2663 363.145 28.9041 363.145C24.712 363.145 20.4963 363.944 17.0135 365.573C13.4321 367.251 11.2454 369.528 10.5244 371.932Z" fill="#C5DFF6"/>
<path d="M10.2902 373.065C9.93925 369.817 12.2459 366.516 17.013 364.282C20.4947 362.649 24.7098 361.855 28.9013 361.855C34.2638 361.855 39.5869 363.155 43.2736 365.675L43.1356 365.879C39.508 363.398 34.2244 362.098 28.9013 362.101C24.7414 362.101 20.5578 362.892 17.1195 364.505C14.9154 365.536 13.2593 366.791 12.1552 368.151C11.1734 369.357 10.6332 370.641 10.5228 371.932C10.4085 372.307 10.3336 372.688 10.2902 373.065ZM47.5203 373.049C47.4808 372.668 47.4019 372.293 47.2915 371.916C47.2087 370.94 46.8775 369.964 46.2861 369.018C45.596 367.915 44.5551 366.847 43.1356 365.879L43.2736 365.675C46.4162 367.823 47.8002 370.467 47.5203 373.049Z" fill="#294797"/>
<path d="M20.4284 378.42L18.3357 377.028L20.6583 375.878C19.5476 374.948 18.6436 373.644 18.628 372.475L22.3106 372.255C22.5249 373.424 23.0081 374.288 24.0447 374.978C24.7539 375.451 25.4164 375.677 26.0633 375.677C26.5154 375.677 26.9557 375.566 27.3961 375.349C29.7888 374.163 24.0447 370.392 28.23 368.32C29.3367 367.771 30.5838 367.502 31.8503 367.502C33.1791 367.502 34.5392 367.797 35.8018 368.379L38.1945 367.193L40.2871 368.589L37.9412 369.748C39.1102 370.773 39.3596 371.802 39.2544 372.836L35.7043 372.738C35.6926 371.841 35.4199 371.2 34.5158 370.596C33.8962 370.182 33.2882 369.962 32.6725 369.962C32.2633 369.962 31.8502 370.061 31.4333 370.267C29.2276 371.361 35.1081 375.063 30.6695 377.261C29.5433 377.819 28.2495 378.118 26.8973 378.118C25.5762 378.118 24.1928 377.832 22.8445 377.224L20.4284 378.42Z" fill="#CCE3F6"/>
<path d="M29.0635 389.007L29.1324 395.425C29.1324 395.56 29.2474 395.668 29.3815 395.668C29.5194 395.665 29.6268 395.553 29.6268 395.419L29.5578 389C29.5578 388.866 29.4467 388.754 29.3087 388.757C29.1746 388.757 29.0635 388.869 29.0635 389.007Z" fill="#3072FF"/>
<path d="M35.9307 388.527L35.9539 394.772C35.9578 394.906 36.0662 395.018 36.2018 395.018C36.3374 395.014 36.4497 394.906 36.4458 394.768L36.4226 388.524C36.4226 388.389 36.3103 388.278 36.1747 388.281C36.0391 388.281 35.9307 388.389 35.9307 388.527Z" fill="#3072FF"/>
<path d="M42.4475 386.948L42.4749 393.192C42.4749 393.33 42.5884 393.438 42.7214 393.438C42.8584 393.438 42.968 393.327 42.968 393.192L42.9406 386.948C42.9406 386.81 42.8349 386.701 42.694 386.701C42.561 386.701 42.4475 386.813 42.4475 386.948Z" fill="#3072FF"/>
<path d="M48.3052 384.282L48.3249 390.04C48.3289 390.175 48.4394 390.287 48.5777 390.283C48.712 390.283 48.8226 390.175 48.8186 390.037L48.7949 384.279C48.7949 384.144 48.6883 384.033 48.55 384.033C48.4157 384.036 48.3052 384.144 48.3052 384.282Z" fill="#3072FF"/>
<path d="M53.0877 380.234L52.9564 386.084C52.9524 386.222 53.0598 386.334 53.1991 386.337C53.3304 386.34 53.4458 386.232 53.4458 386.097L53.5811 380.244C53.5851 380.109 53.4776 379.994 53.3424 379.991C53.2031 379.991 53.0917 380.096 53.0877 380.234Z" fill="#3072FF"/>
<path d="M21.8848 388.523L21.8621 394.767C21.8621 394.905 21.9719 395.014 22.1044 395.017C22.2445 395.017 22.3543 394.905 22.3543 394.77L22.377 388.526C22.3808 388.388 22.271 388.28 22.1347 388.28C21.9984 388.277 21.8886 388.388 21.8848 388.523Z" fill="#3072FF"/>
<path d="M15.3671 386.946L15.3408 393.19C15.3408 393.325 15.4457 393.437 15.5843 393.437C15.7192 393.437 15.8316 393.328 15.8316 393.19L15.8578 386.946C15.8578 386.812 15.7492 386.7 15.6106 386.7C15.4757 386.7 15.3671 386.808 15.3671 386.946Z" fill="#3072FF"/>
<path d="M9.5096 384.28L9.4873 390.039C9.4873 390.177 9.59496 390.285 9.73229 390.285C9.86961 390.288 9.98097 390.177 9.98097 390.042L10.0032 384.284C10.0032 384.146 9.8956 384.037 9.75828 384.034C9.62095 384.034 9.5096 384.146 9.5096 384.28Z" fill="#3072FF"/>
<path d="M4.72299 380.243L4.85552 386.096C4.85921 386.231 4.97336 386.339 5.10958 386.336C5.24581 386.333 5.35258 386.221 5.3489 386.083L5.21633 380.233C5.21265 380.095 5.09854 379.99 4.96231 379.99C4.82608 379.993 4.71931 380.108 4.72299 380.243Z" fill="#3072FF"/>
<path d="M159.879 358.272L76.4606 351C46.0108 333.439 91.7392 283.728 121.754 266.235L243.106 195.514C246.296 193.656 286.824 184.968 296.754 184.968C297.738 184.968 298.417 185.053 298.733 185.237L374.417 227.753C376.516 230.504 377.142 233.235 376.79 235.831C373.922 236.478 371.161 237.493 368.763 238.863L159.879 358.272Z" fill="#D9DFF2"/>
<path d="M311.732 145.105L328.155 169.155L306.063 158.79L311.732 145.105Z" fill="#0E53E6"/>
<path d="M52.5337 215.717C50.8664 214.557 49.306 213.054 47.9426 211.149C44.7231 205.964 46.534 194.166 57.1946 198.653C60.5948 200.09 63.8472 201.838 66.5657 203.729C71.3293 207.041 74.4502 210.792 73.8589 214.083C73.0828 218.437 61.3299 221.835 52.5337 215.717Z" fill="#0E53E6"/>
<path d="M287.912 185.619L248.153 163.493C239.573 158.721 240.66 150.309 250.565 144.799C260.465 139.289 275.582 138.686 284.157 143.457L323.916 165.583C332.49 170.355 331.409 178.767 321.503 184.277C311.603 189.787 296.486 190.391 287.912 185.619Z" fill="#0E53E6"/>
<path d="M328.155 195.253L311.868 196.744V202.459L250.946 168.556L203.122 180.192L203.773 200.843C203.773 204.364 205.579 207.884 209.198 209.896L89.0461 250.258C100.015 256.363 142.601 325.033 153.57 318.926L314.417 228.856C324.604 223.766 326.83 214.064 326.83 214.064L328.155 195.253Z" fill="#0E2E82"/>
<path d="M303.348 140.341C264.499 133.641 224.904 169.241 224.904 169.241L210.645 269.646L257.752 243.702C258.137 226.093 269.584 209.167 284.004 201.013C297.733 193.596 308.794 196.397 309.414 212.966L314.76 209.917V153.366C314.76 146.925 309.927 141.475 303.348 140.341Z" fill="#0E53E6"/>
<path d="M66.0283 347.163L13.5922 317.981C9.97654 315.971 8.17326 312.45 8.17326 308.928L7.7439 295.294L55.3486 276.643L141.776 324.741L101.484 347.163C90.5199 353.269 76.9973 353.269 66.0283 347.163Z" fill="#0E2E82"/>
<path d="M65.3795 333.162L12.9443 303.98C5.71485 299.957 5.71485 289.899 12.9443 285.875L54.6956 262.641L141.129 310.74L100.841 333.162C89.8676 339.266 76.3524 339.266 65.3795 333.162Z" fill="#3072FF"/>
<path d="M176.94 303.787C176.94 302.512 162.389 249.126 132.509 272.591C119.439 282.853 96.5821 329.329 108.387 336.615C120.188 343.9 176.94 303.787 176.94 303.787Z" fill="#0E2E82"/>
<path d="M139.591 313.46C139.631 313.434 139.672 313.411 139.718 313.388C143.411 311.384 146.362 313.102 146.307 317.228C146.253 321.304 143.274 326.208 139.641 328.264C139.6 328.291 139.554 328.314 139.513 328.337C135.821 330.341 132.869 328.633 132.919 324.507C132.978 320.431 135.952 315.517 139.591 313.46Z" fill="#173891"/>
<path d="M139.644 328.264C143.275 326.208 146.255 321.304 146.305 317.227C146.365 313.102 143.413 311.384 139.717 313.387C139.676 313.41 139.635 313.433 139.589 313.46C135.953 315.516 132.978 320.43 132.923 324.506C132.868 328.632 135.82 330.34 139.515 328.336C139.557 328.313 139.598 328.29 139.644 328.264ZM139.818 305.622C147.366 301.513 153.389 305.011 153.283 313.433C153.164 321.751 147.104 331.766 139.676 335.967C139.589 336.02 139.497 336.069 139.405 336.118C131.867 340.211 125.839 336.712 125.949 328.29C126.064 319.98 132.12 309.971 139.529 305.78C139.625 305.727 139.722 305.675 139.818 305.622Z" fill="#E0E0E0"/>
<path d="M139.672 335.968C147.098 331.767 153.163 321.751 153.284 313.435C153.386 305.012 147.363 301.514 139.816 305.623C139.718 305.676 139.625 305.729 139.528 305.781C132.12 309.972 126.06 319.981 125.949 328.291C125.837 336.714 131.864 340.212 139.402 336.119C139.491 336.07 139.583 336.02 139.672 335.968ZM139.951 294.771C152.54 287.932 162.583 293.772 162.387 307.815C162.383 308.146 162.373 308.478 162.355 308.81C162.188 312.383 161.388 316.125 160.078 319.82C156.379 330.242 148.646 340.32 139.728 345.365C139.574 345.454 139.416 345.539 139.258 345.625C130.531 350.378 123.016 349.018 119.303 343.043C117.946 340.862 117.096 338.063 116.877 334.723C116.835 334.036 116.817 333.327 116.826 332.594C117.012 318.713 127.124 302.03 139.5 295.024C139.653 294.938 139.802 294.856 139.951 294.771Z" fill="#173891"/>
<path d="M285.051 232.455C285.089 232.431 285.133 232.408 285.177 232.385C288.865 230.382 291.819 232.1 291.765 236.224C291.71 240.301 288.734 245.205 285.1 247.262C285.057 247.287 285.013 247.309 284.97 247.333C281.276 249.336 278.327 247.629 278.382 243.504C278.436 239.427 281.412 234.513 285.051 232.455Z" fill="#173891"/>
<path d="M285.094 247.263C288.734 245.206 291.706 240.302 291.767 236.225C291.816 232.101 288.866 230.382 285.17 232.386C285.126 232.409 285.088 232.432 285.044 232.457C281.409 234.514 278.431 239.428 278.377 243.505C278.322 247.63 281.272 249.337 284.967 247.333C285.011 247.31 285.055 247.287 285.094 247.263ZM285.275 224.619C292.819 220.511 298.845 224.009 298.736 232.431C298.621 240.747 292.556 250.765 285.132 254.966C285.039 255.017 284.951 255.067 284.858 255.116C277.324 259.208 271.298 255.711 271.407 247.289C271.523 238.979 277.576 228.971 284.984 224.78C285.077 224.725 285.176 224.672 285.275 224.619Z" fill="#E0E0E0"/>
<path d="M285.133 254.966C292.556 250.764 298.622 240.747 298.738 232.431C298.849 224.008 292.822 220.511 285.277 224.619C285.177 224.671 285.083 224.725 284.983 224.779C277.577 228.97 271.522 238.979 271.406 247.288C271.3 255.711 277.322 259.208 284.861 255.116C284.95 255.067 285.039 255.017 285.133 254.966ZM285.41 213.768C298.001 206.93 308.039 212.769 307.845 226.812C307.84 227.143 307.829 227.474 307.812 227.808C307.646 231.381 306.842 235.122 305.535 238.816C301.84 249.24 294.107 259.316 285.188 264.362C285.033 264.45 284.878 264.537 284.717 264.622C275.987 269.374 268.47 268.015 264.758 262.04C263.401 259.858 262.553 257.06 262.337 253.72C262.293 253.032 262.276 252.322 262.288 251.59C262.47 237.711 272.58 221.025 284.961 214.02C285.111 213.935 285.26 213.851 285.41 213.768Z" fill="#173891"/>
<path d="M224.91 169.239L177.793 197.045C177.793 197.045 140.041 248.204 135.544 252.746C131.838 256.494 94.352 284.919 91.978 288.608C87.0289 296.317 85.7011 300.196 85.9626 307.771C85.9626 307.771 86.4002 337.248 86.4354 337.501C96.1777 336.71 101.579 332.663 105.362 331.007L111.835 327.266C112.217 309.656 123.664 292.73 138.084 284.577C151.81 277.16 162.875 279.962 163.499 296.53L222.204 263.055L224.91 169.239Z" fill="#0E53E6"/>
<path d="M246.59 111.948L306.712 141.352C285.543 140.418 263.168 146.707 245.086 157.356L198.235 184.991C184.898 192.856 173.277 203.321 164.061 215.769C158.989 222.625 153.651 229.751 150.249 234.051C146.084 239.307 131.227 259.563 131.227 259.563C131.227 259.563 106.313 277.871 97.6341 287.124C94.7522 290.199 92.0695 293.638 89.6965 297.326C84.7514 305.035 82.1847 314.052 82.4447 321.63L15.0053 281.359C14.7509 273.784 17.3119 264.766 22.2625 257.058C24.63 253.37 27.3128 249.93 30.1947 246.856C38.8735 237.6 50.7938 227.805 60.0756 220.091C62.4928 218.08 81.4546 192.007 95.3717 172.689C105.284 158.929 118.1 147.526 132.914 139.281L181.552 112.212C182.116 111.922 182.68 111.642 183.244 111.37C203.246 101.736 226.644 102.192 246.59 111.948Z" fill="#3072FF"/>
<path d="M60.0746 220.089C56.3663 223.715 50.8969 227.431 47.1619 230.541C39.4924 236.915 33.7569 241.197 27.0987 247.712C25.697 249.083 24.2553 250.553 22.7427 252.162C22.2237 252.717 21.7136 253.284 21.2035 253.861C21.2035 253.861 12.3806 264.647 10.4511 270.975C10.1893 271.648 9.94535 272.323 9.72356 273C9.47515 273.747 9.24449 274.499 9.03601 275.248C8.79647 276.116 8.57914 276.983 8.39727 277.843C8.16217 278.944 7.97586 280.038 7.83392 281.118C7.58994 283.024 7.47904 293.114 7.53671 294.895L82.4445 321.629L88.628 302.068C89.1337 301.49 89.6616 292.986 90.185 292.431C91.6932 290.822 90.5798 294.228 91.9771 292.858C98.6352 286.341 106.731 278.139 114.4 271.766C118.131 268.657 123.347 264.456 128.125 260.771L60.0746 220.089Z" fill="#3072FF"/>
<path d="M15.6982 276.258C17.9139 277.385 20.531 275.91 20.7469 273.443L22.4399 254.051C18.607 258.953 15.0089 264.387 12.9448 268.811C11.6419 271.607 12.9107 274.882 15.6755 276.248L15.6982 276.258Z" fill="white"/>
<path d="M73.1264 303.835L100.08 285.027C102.743 283.165 106.339 285.661 105.513 288.821C103.999 294.589 101.056 301.884 95.416 306.273C86.0114 313.588 78.0395 312.97 73.178 309.676C71.1215 308.283 71.1086 305.245 73.1264 303.835Z" fill="white"/>
<path d="M115.925 242.241L70.8105 214.79L103.957 169.156L149.076 196.607L115.925 242.241Z" fill="#173891"/>
<path d="M129.693 250.678L84.572 223.226L117.723 177.592L162.839 205.043L129.693 250.678Z" fill="#173891"/>
<path d="M314.764 184.049V209.917L322.967 205.886C325.734 204.525 327.989 202.295 329.375 199.537C330.523 197.251 331.034 194.697 330.852 192.145L329.699 176.242L314.764 184.049Z" fill="#0E53E6"/>
<path d="M157.077 262.145L216.964 225.694L222.037 184.392C222.037 184.392 185.234 196.59 155.237 254.592C152.972 258.975 154.034 263.97 157.077 262.145Z" fill="#173891"/>
<path d="M171.482 254.659C173.27 255.642 174.992 256.975 176.552 258.729C180.333 263.553 179.838 275.469 168.742 272.106C165.199 271.027 161.77 269.624 158.859 268.024C153.756 265.221 150.241 261.813 150.464 258.479C150.75 254.07 162.06 249.482 171.482 254.659Z" fill="#3072FF"/>
<path d="M236.283 217.041L265.53 199.88C272.56 195.762 279.253 184.809 283.165 175.477C283.257 175.255 283.355 175.039 283.441 174.817C287.094 165.809 284.312 156.706 277.873 157.899C270.514 159.254 241.343 175.435 239.806 176.286C239.622 176.375 239.438 176.472 239.26 176.577C236.105 178.415 233.361 182.785 232.864 186.916L229.844 211.682C229.222 216.819 232.285 219.371 236.283 217.041Z" fill="#173891"/>
<path d="M329.644 174.123L329.667 173.909C329.899 171.424 328.742 169.745 326.818 169.97C325.922 170.079 324.935 170.464 323.914 171.032C321.559 172.341 319.023 174.624 316.918 176.772C314.455 179.283 313.621 183.287 315.272 184.784C315.908 185.368 316.878 185.387 317.905 184.84L325.145 180.988C325.179 180.969 325.213 180.95 325.247 180.931C327.443 179.709 329.355 176.806 329.644 174.123Z" fill="white"/>
<path d="M16.2012 282.991L66.0093 309.659C66.1716 309.745 66.3664 309.686 66.4556 309.525C66.5409 309.364 66.48 309.167 66.3217 309.081L16.5137 282.409C16.3514 282.324 16.1566 282.386 16.0713 282.544C15.9821 282.705 16.0429 282.905 16.2012 282.991Z" fill="#2A417D"/>
<path d="M320.163 499.682C316.363 499.682 312.789 498.996 310.08 497.584L304.919 494.89C306.244 495.084 307.634 495.179 309.054 495.179C314.303 495.179 319.981 493.868 324.371 491.359L572.187 349.688C576.119 347.445 578.223 344.682 578.463 342.074L578.485 339.288C578.747 338.572 578.878 337.854 578.878 337.144C578.878 337.065 578.878 336.99 578.878 336.914L585.284 340.258C591.749 343.627 590.854 349.869 583.29 354.192L335.473 495.859C331.084 498.369 325.412 499.682 320.163 499.682Z" fill="#DCE0F5"/>
<path d="M576.584 337.462C575.936 336.838 575.152 336.26 574.18 335.754L394.352 241.92C387.888 238.548 376.521 239.318 368.955 243.642L121.134 385.311C120.284 385.797 119.532 386.31 118.852 386.838L114.827 388.681L114.91 394.245C115.221 396.16 116.61 397.924 119.145 399.245L298.975 493.08C305.439 496.45 316.806 495.682 324.372 491.359L572.186 349.688C576.116 347.445 578.226 344.682 578.463 342.074L578.499 337.636L576.584 337.462Z" fill="#0E2E82"/>
<path d="M298.975 488.63L119.142 394.798C112.678 391.425 113.568 385.187 121.132 380.861L368.953 239.193C376.519 234.87 387.885 234.099 394.347 237.471L574.177 331.304C580.639 334.677 579.752 340.915 572.187 345.238L324.369 486.909C316.803 491.231 305.43 492.003 298.975 488.63Z" fill="#E0EEFF"/>
<path d="M298.973 488.63L299.153 488.291L119.319 394.459C117.911 393.723 116.88 392.856 116.204 391.923C115.53 390.99 115.205 389.992 115.205 388.957C115.205 387.683 115.701 386.335 116.719 385.002C117.737 383.672 119.273 382.365 121.325 381.192L369.142 239.522C373.462 237.053 379.079 235.749 384.271 235.75C388.016 235.749 391.545 236.431 394.173 237.807L574.009 331.642C575.413 332.377 576.443 333.245 577.12 334.174C577.797 335.11 578.121 336.105 578.121 337.143C578.121 338.414 577.624 339.762 576.609 341.095C575.586 342.425 574.052 343.736 572 344.909L324.184 486.576C319.864 489.047 314.247 490.351 309.055 490.347C305.303 490.351 301.781 489.667 299.153 488.291L298.973 488.63L298.8 488.967C301.587 490.419 305.216 491.109 309.055 491.109C314.369 491.109 320.094 489.789 324.559 487.237L572.382 345.569C574.499 344.357 576.119 342.99 577.214 341.558C578.308 340.126 578.884 338.618 578.884 337.143C578.884 335.944 578.496 334.779 577.739 333.727C576.976 332.679 575.845 331.743 574.355 330.964L394.526 237.132C391.739 235.678 388.11 234.99 384.271 234.988C378.957 234.99 373.232 236.311 368.767 238.861L120.947 380.532C118.826 381.74 117.208 383.107 116.115 384.542C115.019 385.974 114.444 387.482 114.444 388.957C114.444 390.156 114.828 391.322 115.59 392.37C116.348 393.421 117.477 394.357 118.968 395.133L298.8 488.967L298.973 488.63Z" fill="#3072FF"/>
<path d="M310.089 473.602L137.199 383.389L385.636 244.903L558.533 335.113L310.089 473.602Z" fill="white"/>
<path d="M310.084 473.602L310.261 473.264L137.996 383.377L385.641 245.337L557.723 335.127L309.9 473.267L310.084 473.602L310.261 473.264L310.084 473.602L310.268 473.934L559.33 335.104L385.634 244.471L136.388 383.4L310.091 474.036L310.268 473.934L310.084 473.602Z" fill="#3072FF"/>
<path d="M515.781 300.979L509.869 297.894C516.837 294.012 516.837 287.912 509.869 284.276L477.853 267.571C470.884 263.935 459.588 264.136 452.613 268.02L448.642 265.948C441.392 262.163 429.63 262.372 422.373 266.415C415.117 270.459 415.117 276.806 422.373 280.59L489.512 315.622C496.769 319.406 508.531 319.199 515.781 315.155C523.037 311.112 523.037 304.766 515.781 300.979Z" fill="#0E2E82"/>
<path d="M515.781 295.628L509.869 292.544C516.837 288.661 516.837 282.565 509.869 278.925L477.853 262.221C470.884 258.585 459.588 258.786 452.613 262.67L448.642 260.598C441.392 256.813 429.63 257.022 422.373 261.065C415.117 265.108 415.117 271.455 422.373 275.24L489.512 310.271C496.769 314.059 508.531 313.848 515.781 309.805C523.037 305.761 523.037 299.415 515.781 295.628Z" fill="#3072FF"/>
<path d="M497.428 294.703L448.417 268.363C446.674 267.43 446.633 265.096 448.329 264.044C449.197 263.508 450.308 263.469 451.189 263.945L500.207 290.284C501.943 291.218 501.99 293.55 500.294 294.604C499.426 295.14 498.316 295.179 497.428 294.703Z" fill="white"/>
<path d="M410.582 315.166L457.826 340.166C459.013 340.793 460.484 340.34 461.113 339.151C461.742 337.961 461.288 336.49 460.102 335.863L412.857 310.859C411.671 310.232 410.193 310.685 409.57 311.874C408.941 313.064 409.395 314.535 410.582 315.166Z" fill="#849AD1"/>
<path d="M393.243 324.441L473.119 366.115C474.316 366.736 475.783 366.276 476.407 365.083C477.026 363.891 476.565 362.42 475.368 361.799L395.492 320.125C394.302 319.505 392.829 319.968 392.211 321.16C391.593 322.349 392.053 323.821 393.243 324.441Z" fill="#849AD1"/>
<path d="M367.793 310.101L336.928 293.901L367.689 276.716L398.547 292.915L367.793 310.101Z" fill="#3072FF"/>
<path d="M359.681 287.2L357.469 296.039C357.361 296.472 357.469 296.926 357.757 297.261C358.051 297.599 358.482 297.77 358.926 297.724L380.76 295.447C381.51 295.369 382.049 294.702 381.971 293.953C381.893 293.207 381.228 292.665 380.479 292.744L360.58 294.816L362.324 287.86C362.504 287.131 362.06 286.395 361.335 286.211C360.604 286.027 359.867 286.47 359.681 287.2Z" fill="white"/>
<path d="M341.931 352.841L389.173 377.845C390.361 378.472 391.834 378.019 392.465 376.829C393.089 375.64 392.634 374.169 391.446 373.541L344.198 348.538C343.016 347.91 341.543 348.364 340.913 349.553C340.288 350.742 340.743 352.214 341.931 352.841Z" fill="#849AD1"/>
<path d="M324.584 362.122L404.465 403.795C405.653 404.416 407.124 403.953 407.746 402.764C408.367 401.571 407.905 400.1 406.711 399.479L326.831 357.806C325.643 357.185 324.172 357.644 323.55 358.837C322.928 360.029 323.39 361.5 324.584 362.122Z" fill="#849AD1"/>
<path d="M299.137 347.776L268.278 331.579L299.035 314.394L329.894 330.594L299.137 347.776Z" fill="#3072FF"/>
<path d="M291.028 324.878L288.816 333.717C288.704 334.15 288.81 334.6 289.106 334.939C289.395 335.274 289.83 335.445 290.276 335.399L312.103 333.126C312.855 333.047 313.396 332.38 313.318 331.632C313.24 330.886 312.571 330.344 311.825 330.42L291.925 332.495L293.664 325.538C293.848 324.809 293.408 324.07 292.678 323.889C291.953 323.705 291.212 324.148 291.028 324.878Z" fill="white"/>
<path d="M273.269 390.521L320.516 415.522C321.701 416.152 323.173 415.699 323.799 414.51C324.43 413.32 323.979 411.849 322.789 411.218L275.542 386.218C274.357 385.591 272.885 386.044 272.253 387.233C271.627 388.422 272.084 389.894 273.269 390.521Z" fill="#849AD1"/>
<path d="M255.93 399.8L335.809 441.474C337.002 442.094 338.47 441.631 339.089 440.439C339.714 439.25 339.249 437.779 338.057 437.158L258.178 395.484C256.985 394.863 255.517 395.323 254.898 396.516C254.273 397.708 254.737 399.179 255.93 399.8Z" fill="#849AD1"/>
<path d="M230.482 385.455L199.624 369.255L230.383 352.072L261.241 368.269L230.482 385.455Z" fill="#3072FF"/>
<path d="M222.37 362.555L220.155 371.397C220.047 371.827 220.155 372.281 220.444 372.619C220.738 372.954 221.17 373.125 221.613 373.079L243.449 370.806C244.196 370.727 244.737 370.057 244.66 369.312C244.577 368.566 243.913 368.024 243.166 368.1L223.262 370.172L225.008 363.218C225.188 362.489 224.745 361.75 224.019 361.57C223.293 361.386 222.556 361.829 222.37 362.555Z" fill="white"/>
<path d="M492.943 474.121L481.21 467.345L513.036 448.957C519.587 444.946 526.729 453.694 521.713 457.195L492.943 474.121Z" fill="white"/>
<path d="M492.945 474.121L493.13 473.793L481.971 467.345L513.232 449.285V449.282C514.358 448.595 515.484 448.31 516.561 448.306C518.304 448.306 519.924 449.075 521.111 450.195C522.299 451.312 523.026 452.774 523.019 454.087C523.019 454.617 522.909 455.126 522.662 455.595C522.415 456.065 522.045 456.502 521.503 456.883L521.715 457.195L521.523 456.866L492.753 473.793L492.945 474.121L493.13 473.793L492.945 474.121L493.137 474.45L521.921 457.517L521.935 457.507C522.566 457.063 523.033 456.531 523.335 455.947C523.644 455.362 523.781 454.728 523.781 454.087C523.781 452.494 522.944 450.875 521.633 449.64C520.322 448.405 518.531 447.548 516.561 447.544C515.346 447.544 514.07 447.876 512.834 448.635L513.033 448.957L512.848 448.628L480.447 467.345L492.945 474.564L493.137 474.45L492.945 474.121Z" fill="#3072FF"/>
<path d="M574.521 456.557C546.301 461.215 516.894 451.778 508.827 435.479C500.767 419.18 517.104 402.191 545.317 397.534C573.537 392.876 602.943 402.313 611.011 418.612C619.078 434.911 602.741 451.9 574.521 456.557ZM620.009 418.835C610.59 399.797 576.241 388.773 543.281 394.213C510.329 399.653 491.25 419.496 500.662 438.534C510.081 457.573 544.43 468.593 577.39 463.153C610.35 457.713 629.428 437.87 620.009 418.835Z" fill="#0E2E82"/>
<path d="M504.376 473.457C504.896 480.037 500.49 483.069 494.532 480.231C488.574 477.392 483.318 469.755 482.798 463.173C482.279 456.593 486.685 453.562 492.643 456.4C498.601 459.241 503.85 466.875 504.376 473.457Z" fill="#0E53E6"/>
<path d="M430.871 488.807L485.111 456.397L501.032 480.835L446.477 513.492L430.871 488.807Z" fill="#0E53E6"/>
<path d="M449.605 506.206C450.124 512.789 445.719 515.821 439.757 512.979C433.801 510.141 428.55 502.504 428.031 495.925C427.505 489.346 431.916 486.311 437.872 489.152C443.828 491.99 449.085 499.627 449.605 506.206Z" fill="#0E2E82"/>
<path d="M429.474 490.15C430.281 489.595 431.267 489.296 432.419 489.296C433.61 489.296 434.968 489.621 436.447 490.324C439.347 491.704 442.114 494.279 444.201 497.324C446.295 500.362 447.71 503.867 447.966 507.07C447.991 507.415 448.004 507.746 448.004 508.072C448.004 510.227 447.409 511.879 446.423 512.96C446.282 513.114 446.295 513.35 446.448 513.491C446.602 513.633 446.839 513.623 446.98 513.469C448.132 512.211 448.76 510.361 448.76 508.072C448.76 507.727 448.747 507.372 448.715 507.011C448.446 503.631 446.98 500.027 444.828 496.893C442.671 493.763 439.828 491.102 436.773 489.641C435.211 488.899 433.745 488.54 432.419 488.54C431.139 488.54 429.986 488.879 429.045 489.526C428.872 489.644 428.827 489.881 428.949 490.052C429.064 490.222 429.301 490.268 429.474 490.15Z" fill="white"/>
<path d="M574.521 453.04C546.301 457.697 516.894 448.26 508.827 431.961C500.767 415.662 517.104 398.671 545.317 394.013C573.537 389.358 602.943 398.795 611.011 415.094C619.078 431.393 602.741 448.382 574.521 453.04ZM620.009 415.317C610.59 396.279 576.241 385.255 543.281 390.695C510.329 396.134 491.25 415.978 500.662 435.016C510.081 454.051 544.43 465.075 577.39 459.635C610.35 454.195 629.428 434.352 620.009 415.317Z" fill="#0E53E6"/>
<path d="M571.834 439.168L572.247 439.247C573.139 439.415 574.212 438.863 574.632 438.015L586.443 414.187C586.863 413.344 586.472 412.512 585.58 412.345L585.16 412.266C584.268 412.098 583.195 412.654 582.774 413.498L570.964 437.328C570.543 438.173 570.935 439 571.834 439.168Z" fill="white"/>
<path d="M562.027 434.694L562.221 434.73C562.652 434.809 563.162 434.546 563.363 434.142L575.972 408.705C576.166 408.301 575.979 407.907 575.555 407.828L575.361 407.788C574.93 407.71 574.42 407.972 574.219 408.376L561.61 433.814C561.416 434.218 561.595 434.612 562.027 434.694Z" fill="white"/>
<path d="M493.038 456.758L493.105 456.531L493.038 456.758L493.105 456.531L493.038 456.758L493.051 456.764C493.247 456.827 495.055 457.451 497.254 459.677C499.46 461.908 502.07 465.748 503.851 472.275C503.905 472.475 504.114 472.593 504.317 472.537C504.512 472.482 504.634 472.275 504.58 472.074C502.704 465.199 499.898 461.188 497.544 458.899C495.19 456.61 493.294 456.048 493.247 456.035C493.044 455.975 492.835 456.091 492.781 456.291C492.721 456.491 492.835 456.702 493.038 456.758Z" fill="white"/>
<path d="M609.494 208.616C611.276 207.293 612.953 205.776 614.507 204.072C621.029 196.929 625.443 186.523 626.801 173.436C627.097 170.627 627.233 167.776 627.233 164.899C627.233 147.799 622.235 129.773 613.81 114.039C605.384 98.3055 593.545 84.8592 579.818 76.9428C571.582 72.1898 563.52 69.9294 556.088 69.9294C556.08 69.9294 556.08 69.9294 556.073 69.9294C554.928 69.9294 553.798 69.9832 552.69 70.0895L557.582 67.3207L557.59 67.332C561.814 65.4062 566.44 64.3963 571.339 64.3963C578.157 64.3963 585.499 66.3509 592.992 70.5076C621.826 86.4898 641.271 128.872 639.087 165.197C637.896 184.901 628.553 198.579 616.487 204.644L616.494 204.659L616.252 204.757C615.334 205.212 612.012 207.21 609.494 208.616Z" fill="#CCE3F6"/>
<path d="M626.426 173.397C622.691 209.423 595.687 224.795 566.104 207.734C536.53 190.671 515.576 147.635 519.311 111.609C523.046 75.5831 550.051 60.2108 579.633 77.272C609.207 94.3348 630.161 137.371 626.426 173.397Z" fill="#E0EEFF"/>
<path d="M626.43 173.396L626.047 173.357C624.705 186.318 620.341 196.562 613.953 203.557C607.557 210.551 599.152 214.312 589.653 214.315C582.372 214.315 574.447 212.1 566.297 207.403C552.733 199.581 540.969 186.239 532.601 170.607C524.226 154.975 519.263 137.057 519.263 120.107C519.263 117.254 519.405 114.429 519.69 111.647C521.032 98.6857 525.403 88.4414 531.792 81.4468C538.18 74.453 546.585 70.6917 556.092 70.6894C563.373 70.6894 571.298 72.9032 579.448 77.6015C593.004 85.4235 604.776 98.7645 613.143 114.397C621.511 130.029 626.482 147.946 626.475 164.897C626.475 167.749 626.34 170.575 626.047 173.357L626.43 173.396L626.805 173.435C627.097 170.626 627.239 167.775 627.239 164.897C627.239 147.798 622.238 129.772 613.818 114.037C605.391 98.3039 593.544 84.8579 579.823 76.9413C571.583 72.1883 563.522 69.9273 556.092 69.9273C546.382 69.925 537.752 73.7891 531.229 80.9322C524.706 88.0761 520.29 98.4809 518.933 111.568C518.64 114.378 518.498 117.229 518.498 120.107C518.505 137.206 523.506 155.232 531.926 170.966C540.354 186.699 552.201 200.146 565.922 208.063C574.162 212.816 582.222 215.076 589.653 215.076C599.362 215.079 607.992 211.214 614.516 204.071C621.031 196.928 625.447 186.522 626.805 173.435L626.43 173.396Z" fill="#3072FF"/>
<path d="M615.875 167.308C612.881 196.236 591.189 208.58 567.442 194.879C543.695 181.179 526.873 146.622 529.867 117.694C532.868 88.7674 554.552 76.4229 578.307 90.1234C602.054 103.824 618.876 138.381 615.875 167.308Z" fill="white"/>
<path d="M615.873 167.309L615.494 167.27C614.416 177.665 610.915 185.875 605.802 191.477C600.681 197.078 593.954 200.087 586.343 200.09C580.516 200.09 574.161 198.317 567.628 194.55C556.754 188.279 547.314 177.576 540.603 165.034C533.884 152.492 529.9 138.115 529.9 124.519C529.9 122.231 530.011 119.966 530.242 117.735C531.319 107.339 534.82 99.1301 539.941 93.5276C545.062 87.9265 551.781 84.9169 559.392 84.9147C565.227 84.9147 571.582 86.6876 578.108 90.4548C588.982 96.7259 598.428 107.428 605.14 119.971C611.852 132.512 615.843 146.889 615.843 160.486C615.843 162.773 615.732 165.039 615.494 167.27L615.873 167.309L616.252 167.349C616.49 165.09 616.601 162.798 616.601 160.486C616.601 146.74 612.58 132.256 605.816 119.611C599.045 106.967 589.524 96.1608 578.494 89.7945C571.864 85.9729 565.383 84.1525 559.392 84.1525C551.581 84.1503 544.624 87.2631 539.376 93.0137C534.129 98.7643 530.576 107.135 529.484 117.656C529.253 119.915 529.134 122.207 529.134 124.519C529.142 138.264 533.155 152.749 539.926 165.394C546.698 178.037 556.219 188.844 567.249 195.211C573.879 199.032 580.36 200.853 586.343 200.853C594.155 200.855 601.112 197.741 606.359 191.991C611.614 186.241 615.167 177.87 616.252 167.349L615.873 167.309Z" fill="#3072FF"/>
<path d="M586.344 200.09C580.512 200.09 574.164 198.317 567.634 194.55C556.762 188.279 547.316 177.575 540.604 165.033C533.884 152.492 529.899 138.115 529.899 124.518C529.899 122.231 530.016 119.966 530.241 117.734C531.325 107.339 534.823 99.1297 539.942 93.5275C545.062 87.9259 551.788 84.9167 559.395 84.9138C560.238 84.9138 561.096 84.9509 561.962 85.0258C549.716 87.9659 540.684 99.503 538.829 117.419C535.826 146.347 552.653 180.904 576.404 194.605C581.203 197.375 585.923 199.076 590.417 199.791C589.093 199.989 587.733 200.089 586.344 200.09Z" fill="#C5DFF6"/>
<path d="M586.327 200.458C580.424 200.458 574.011 198.666 567.445 194.875C543.685 181.174 526.863 146.618 529.869 117.69C532.031 96.7773 543.969 84.5477 559.394 84.5477C560.602 84.5477 561.847 84.6234 563.107 84.7778C562.721 84.8521 562.342 84.9352 561.956 85.0262C561.097 84.9512 560.239 84.914 559.394 84.914C551.787 84.917 545.061 87.9263 539.944 93.5276C534.827 99.1297 531.318 107.339 530.241 117.734C530.015 119.965 529.898 122.231 529.898 124.519C529.898 138.115 533.888 152.492 540.599 165.034C547.311 177.576 556.759 188.278 567.634 194.55C574.164 198.316 580.511 200.09 586.342 200.09C587.732 200.09 589.094 199.988 590.418 199.791C590.812 199.854 591.212 199.91 591.605 199.958C589.894 200.289 588.133 200.458 586.327 200.458Z" fill="#294797"/>
<path d="M577.584 97.931C577.569 100.377 576.059 102.405 574.21 102.461C572.361 102.517 570.872 100.579 570.894 98.1333C570.908 95.6877 572.419 93.6589 574.268 93.6035C576.116 93.5473 577.605 95.4855 577.584 97.931Z" fill="#97CBFF"/>
<path d="M574.637 188.412C574.616 190.857 573.102 192.886 571.257 192.941C569.406 192.997 567.921 191.061 567.942 188.615C567.957 186.168 569.471 184.14 571.322 184.085C573.166 184.028 574.651 185.966 574.637 188.412Z" fill="#97CBFF"/>
<path d="M606.477 167.316C604.454 166.188 603.55 163.874 604.461 162.146C605.373 160.419 607.751 159.932 609.774 161.059C611.796 162.187 612.7 164.501 611.789 166.228C610.877 167.956 608.499 168.443 606.477 167.316Z" fill="#97CBFF"/>
<path d="M533.803 126.945C531.784 125.817 530.879 123.503 531.791 121.775C532.703 120.048 535.077 119.561 537.104 120.688C539.123 121.816 540.028 124.13 539.116 125.857C538.204 127.585 535.829 128.072 533.803 126.945Z" fill="#97CBFF"/>
<path d="M590.528 178.59L570.986 144.388C570.84 144.136 570.898 143.82 571.124 143.687C571.349 143.554 571.648 143.651 571.793 143.903L591.336 178.106C591.482 178.358 591.416 178.674 591.198 178.807C590.972 178.94 590.674 178.842 590.528 178.59Z" fill="#97CBFF"/>
<path d="M572.8 144.99L546.031 162.177C544.962 162.861 543.599 162.523 542.983 161.425C542.373 160.329 542.746 158.873 543.807 158.189L570.576 141.001C571.638 140.318 573.008 140.656 573.625 141.754C574.234 142.849 573.861 144.306 572.8 144.99Z" fill="#97CBFF"/>
<path d="M574.607 119.895L573.753 142.238C573.703 143.53 572.662 144.584 571.435 144.579C570.208 144.573 569.24 143.512 569.29 142.22L570.144 119.875C570.194 118.583 571.242 117.531 572.468 117.535V117.536C573.695 117.541 574.657 118.602 574.607 119.895Z" fill="#0A8645"/>
<path d="M575.445 144.007C575.424 146.448 573.593 147.774 571.352 146.967C569.112 146.161 567.31 143.528 567.324 141.087C567.346 138.645 569.17 137.319 571.417 138.125C573.657 138.932 575.46 141.565 575.445 144.007Z" fill="#0A8645"/>
<path d="M573.183 142.95C573.176 144.051 572.352 144.65 571.342 144.286C570.331 143.922 569.514 142.734 569.521 141.632C569.528 140.53 570.353 139.932 571.363 140.296C572.381 140.659 573.191 141.848 573.183 142.95Z" fill="white"/>
<path d="M452.292 228.143C429.244 228.143 410.558 219.568 410.558 208.99C410.558 198.412 429.244 189.837 452.292 189.837C475.347 189.837 494.033 198.412 494.033 208.99C494.033 219.569 475.347 228.143 452.292 228.143Z" fill="#DCE0F5"/>
<path d="M455.338 220.283C442.278 227.829 421.031 227.79 407.887 220.197C394.742 212.604 394.67 200.331 407.737 192.785C420.803 185.24 442.05 185.278 455.188 192.871C468.333 200.465 468.405 212.737 455.338 220.283Z" fill="#8CA2DB"/>
<path d="M382.3 159.462L398.088 207.893L464.851 208.99L480.092 162.313L382.3 159.462Z" fill="#8CA2DB"/>
<path d="M459.357 161.382L444.12 207.878H444.107C442 214.995 440.084 216.58 434.606 219.745C430.649 222.033 425.928 224.008 420.917 224.868C432.19 226.764 444.746 224.633 453.575 219.534C459.054 216.37 462.214 214.767 463.077 207.878H463.083L478.326 161.382H459.357Z" fill="#758CC7"/>
<path d="M466.703 176.691C447.405 187.839 416.019 187.782 396.596 176.564C377.179 165.347 377.08 147.217 396.377 136.069C415.674 124.922 447.061 124.979 466.484 136.196C485.901 147.414 486 165.544 466.703 176.691Z" fill="white"/>
<path d="M466.702 176.691L466.517 176.361C456.981 181.869 444.434 184.634 431.854 184.633C419.168 184.634 406.463 181.822 396.788 176.234C391.954 173.441 388.342 170.222 385.938 166.81C383.541 163.397 382.352 159.794 382.352 156.201C382.352 152.636 383.521 149.07 385.885 145.698C388.243 142.326 391.802 139.152 396.57 136.399C406.099 130.891 418.653 128.125 431.233 128.126C443.912 128.125 456.625 130.937 466.292 136.525C471.133 139.32 474.745 142.537 477.142 145.949C479.546 149.362 480.735 152.965 480.735 156.559C480.735 160.123 479.566 163.689 477.202 167.061C474.838 170.433 471.278 173.608 466.517 176.361L466.702 176.691L466.893 177.021C471.734 174.223 475.386 170.981 477.823 167.499C480.266 164.018 481.494 160.293 481.494 156.559C481.494 152.795 480.246 149.031 477.77 145.51C475.287 141.988 471.589 138.704 466.675 135.865C456.849 130.191 444.025 127.365 431.233 127.364C418.541 127.365 405.882 130.144 396.187 135.739C391.347 138.537 387.701 141.779 385.258 145.261C382.821 148.742 381.593 152.467 381.593 156.201C381.593 159.965 382.841 163.728 385.317 167.249C387.794 170.771 391.499 174.056 396.412 176.894C406.238 182.568 419.056 185.394 431.854 185.396C444.546 185.394 457.206 182.615 466.893 177.021L466.702 176.691Z" fill="#3072FF"/>
<path d="M461.386 172.888C444.819 182.457 417.873 182.408 401.207 172.78C384.535 163.151 384.456 147.588 401.016 138.02C417.583 128.451 444.523 128.5 461.195 138.128C477.867 147.757 477.946 163.32 461.386 172.888Z" fill="#1C3D5E"/>
<path d="M432.926 140.979C437.145 102.58 469.785 39.4539 469.785 39.4539C427.72 51.9467 424.944 93.5433 424.944 93.5433L432.926 140.979Z" fill="#0A8645"/>
<path d="M423.407 107.041C427.845 68.6659 409.299 0.000213623 409.299 0.000213623C447.523 21.5538 440.968 62.7242 440.968 62.7242L423.407 107.041Z" fill="#0A8645"/>
<path d="M487.873 60.7291C452.759 68.6607 431.535 130.154 431.535 130.154L431.528 130.279C430.226 51.9129 380.75 31.1327 380.75 31.1327C395.524 52.6446 409.441 125.933 413.645 149.611C415.22 158.511 423.105 165.024 432.133 164.591C432.631 164.567 433.136 164.527 433.641 164.472C441.366 163.63 447.451 157.593 448.952 149.967C455.442 117.166 487.873 60.7291 487.873 60.7291Z" fill="#3EC27D"/>
<path d="M146.465 394.49C146.465 394.49 159.595 418.163 160.554 432.852C160.554 432.852 156.902 440.899 154.237 433.752C147.725 416.313 143.225 401.384 138.011 395.445C132.797 389.51 146.465 394.49 146.465 394.49Z" fill="#FF8066"/>
<path d="M121.138 546.369C114.423 546.369 107.741 545.255 102.293 542.973C89.7702 537.727 88.4991 528.28 99.4648 521.875C105.655 518.255 114.423 516.383 123.142 516.383C129.856 516.383 136.539 517.493 141.987 519.776C154.514 525.025 155.781 534.468 144.82 540.877C138.625 544.493 129.856 546.369 121.138 546.369Z" fill="#E8EEFA"/>
<path d="M116.972 536.064L111.933 524.581C111.08 523.593 108.718 522.775 106.959 522.716C106.168 522.689 105.358 523.343 105.008 524.256L104.256 526.223C103.092 529.035 103.171 529.492 104.295 530.799L110.966 538.551C112.09 539.855 114.26 540.407 115.795 539.773L116.228 539.592C117.759 538.959 118.096 537.372 116.972 536.064Z" fill="#191791"/>
<path d="M104.295 524.348C104.303 527.077 111.113 527.803 111.104 525.073L111.065 516.198L104.256 515.472L104.295 524.348Z" fill="#ACAFF2"/>
<path d="M142.494 525.76L131.254 517.778C129.802 517.216 128.041 517.02 125.981 517.499C125.055 517.713 124.923 517.023 124.955 517.88L123.898 521.454C122.927 523.829 122.659 524.22 125.382 525.215L136.736 529.62C138.646 530.362 141.414 530.162 142.884 529.176L143.302 528.897C144.768 527.915 144.405 526.503 142.494 525.76Z" fill="#191791"/>
<path d="M124.964 518.544C124.964 521.362 131.812 521.362 131.812 518.547V509.389H124.964V518.544Z" fill="#ACAFF2"/>
<path d="M124.98 515.781C127.69 517.732 132.126 517.69 133.574 515.42C138.218 487.355 140.053 458.791 139.309 429.77L117.946 423.375C122.22 458.216 127.175 489.047 124.98 515.781Z" fill="#4432DB"/>
<path d="M103.678 518.639C105.608 521.979 110.456 522.525 112.044 520.432L128.087 428.016L105.297 426.285L103.678 518.639Z" fill="#4432DB"/>
<path d="M122.257 459.943L123.82 468.553L129.035 442.754C127.982 443.076 127.969 441.775 126.783 441.986L122.257 459.943Z" fill="#191791"/>
<path d="M110.246 403.968C105.154 409.999 102.636 412.926 98.6386 421.19C96.0256 426.597 97.1721 431.271 99.4303 434.214C102.519 438.234 106.062 442.767 106.062 442.767L102.108 446.367C102.108 446.367 87.7064 434.033 90.0036 422.711L98.5002 395.904L110.246 403.968Z" fill="#FF8066"/>
<path d="M102.637 443.787L103.274 443.182C104.453 442.072 106.42 442.23 107.646 443.53L110.168 446.201C111.395 447.505 111.434 449.479 110.259 450.589L109.614 451.191C108.439 452.3 106.472 452.143 105.246 450.842L102.728 448.172C101.497 446.868 101.458 444.897 102.637 443.787Z" fill="#FF8066"/>
<path d="M140.129 379.109C146.912 389.992 153.429 400.943 154.16 408.383C152.377 414.608 150.658 411.152 146.31 412.693L133.291 389.837L136.853 383.856L140.129 379.109Z" fill="#BACCF5"/>
<path d="M140.839 431.197C141.174 420.429 141.464 410.437 143.486 397.068C144.067 378.493 137.266 371.398 125.434 375.303L120.564 376.437C106.206 383.604 99.0479 383 101.106 398.027L102.557 430.871C102.031 447.738 141.12 451.056 140.839 431.197Z" fill="#BACCF5"/>
<path d="M110.246 402.822L103.371 427.917L102.563 430.354L102.052 418.138L110.246 402.822Z" fill="#93B0F5"/>
<path d="M111.466 399.883L98.1912 425.08C97.1409 426.601 89.4226 424.217 89.5098 421.533C89.7059 415.916 98.5094 386.747 106.89 383.101C113.698 380.145 115.458 390.883 111.466 399.883Z" fill="#BACCF5"/>
<path d="M158.48 443.199C160.112 442.598 160.961 440.768 160.358 439.132L157.78 432.103C157.177 430.467 155.345 429.623 153.718 430.224C152.081 430.825 151.237 432.655 151.84 434.288L154.418 441.317C155.021 442.953 156.848 443.8 158.48 443.199Z" fill="#FF8066"/>
<path d="M160.111 437.44C161.742 436.839 162.588 435.013 161.988 433.377L159.404 426.348C158.805 424.712 156.979 423.868 155.343 424.469C153.712 425.07 152.866 426.9 153.465 428.532L156.049 435.562C156.649 437.197 158.48 438.045 160.111 437.44Z" fill="#FF8066"/>
<path d="M159.778 437.542L154.157 440.6L155.763 443.704L161.737 439.983L159.778 437.542Z" fill="#DEE5FF"/>
<path d="M195.402 437.959C195.402 437.959 188.988 465.482 174.161 460.374C162.078 456.209 154.888 443.704 154.888 443.704L162.544 439.648C162.544 439.648 174.248 449.722 177.792 448.861C185.817 446.907 184.401 429.09 189.928 427.366C193.08 426.384 195.402 437.959 195.402 437.959Z" fill="#0A8645"/>
<path d="M97.7315 422.143C97.7315 422.143 99.7088 423.598 98.7116 425.651C97.7144 427.707 87.4826 426.4 88.2326 423.105C88.9784 419.807 89.5792 418.382 97.7315 422.143Z" fill="#93B0F5"/>
<path d="M148.305 414.316C146.729 414.661 145.126 413.649 144.831 412.06L144.817 411.994C144.439 409.74 153.52 404.853 154.824 407.973C156.054 410.903 155.671 412.713 148.305 414.316Z" fill="#93B0F5"/>
<path d="M128.033 376.074C128.033 376.074 126.43 378.012 125.533 378.327C124.631 378.646 113.597 371.942 115.986 362.436C117.495 356.415 128.89 359.437 128.89 359.437L128.033 376.074Z" fill="#191791"/>
<path d="M121.729 384.254L119.323 381.304C121.177 381.823 126.199 382.822 126.719 380.969L129.525 371.535C130.046 369.683 128.956 367.742 127.106 367.219L126.554 367.065C124.7 366.546 122.761 367.636 122.24 369.489L117.948 379.117C117.428 380.969 119.879 383.735 121.729 384.254Z" fill="#FF8066"/>
<path d="M127.943 377.178C127.943 377.178 123.361 376.794 120.847 372.097C120.847 372.097 123.016 379.087 127.122 380.098L127.943 377.178Z" fill="#D4563B"/>
<path d="M105.396 454.321C105.396 454.321 111.035 444.41 111.118 443.402C111.118 443.402 113.264 448.572 111.118 451.447C108.971 454.321 105.396 454.321 105.396 454.321Z" fill="#191791"/>
<path d="M225.537 422.886C231.801 432.389 234.119 439.066 236.596 450.034C237.132 452.399 237.336 453.808 236.708 456.124C234.62 463.83 232.22 464.194 231.316 472.229C230.862 476.279 225.792 474.308 226.251 470.209C227.089 462.746 227.216 464.25 229.591 457.116C230.04 455.769 230.525 454.445 231.036 453.125C230.571 454.334 231.199 455.227 230.949 454.147C230.801 453.47 230.658 452.79 230.51 452.113C228.146 441.546 225.588 429.817 219.563 420.675C217.286 417.223 222.831 414.014 225.092 417.443L225.537 422.886Z" fill="#0A8645"/>
<path d="M226.903 419.959C231.139 427.346 234.21 439.832 236.995 449.939C238.053 452.727 237.389 455.254 235.621 455.142L229.729 455.957C228.272 455.865 225.508 452.718 224.828 450.386L217.352 424.679C216.13 420.498 217.03 416.901 219.426 416.362L213.718 412.194C214.132 410.653 224.353 412.332 226.903 419.959Z" fill="#0A8645"/>
<path d="M207.096 466.779L236.68 483.867C238.129 484.704 239.937 483.66 239.937 481.984V461.376C239.937 460.597 239.522 459.878 238.851 459.49L209.268 442.403C207.823 441.565 206.01 442.613 206.01 444.288V464.897C206.01 465.675 206.425 466.391 207.096 466.779Z" fill="#191791"/>
<path d="M223.103 480.06L225.255 481.035C226.91 481.784 228.875 481.042 229.624 479.386C230.368 477.734 229.629 475.766 227.974 475.018L225.827 474.042C224.171 473.293 222.202 474.035 221.457 475.691C220.708 477.346 221.447 479.31 223.103 480.06Z" fill="#FF8066"/>
<path d="M207.878 574C202.061 574 196.183 572.926 191.54 570.765C182.004 566.32 181.308 558.972 189.99 554.347C194.446 551.973 200.497 550.78 206.629 550.78C212.446 550.78 218.324 551.854 222.967 554.019C232.503 558.46 233.194 565.811 224.517 570.433C220.061 572.808 214.005 574 207.878 574Z" fill="#E0E6FF"/>
<path d="M222.974 550.035L217.125 549.298C213.214 547.522 211.382 546.185 209.64 547.193L209.147 547.479C207.405 548.484 207.622 550.261 209.635 551.427L218.227 558.269C220.24 559.435 222.953 559.067 224.559 557.655C224.559 557.655 225.52 556.788 224.836 553.129C224.443 551.04 224.579 550.964 222.974 550.035Z" fill="#191791"/>
<path d="M197.422 561.725L191.69 563.735C187.261 563.959 184.96 563.624 183.82 565.296L183.497 565.769C182.356 567.444 183.384 568.896 185.778 569.001L198.244 571.086C200.632 571.188 201.592 569.631 202.419 567.667C202.419 567.667 202.884 565.259 201.572 562.707C200.598 560.825 199.335 561.807 197.422 561.725Z" fill="#191791"/>
<path d="M194.913 563.738C194.913 566.475 201.573 566.475 201.573 563.738V554.837H194.913V563.738Z" fill="white"/>
<path d="M194.071 558.115C194.914 561.584 201.832 561.331 203.181 559.087C202.745 529.147 206.392 498.053 213.935 466.389H189.907C189.788 497.094 190.954 527.688 194.071 558.115Z" fill="#DEE5FF"/>
<path d="M217.569 550.576C217.725 553.057 224.38 553.057 224.229 550.576L223.737 542.516H217.077L217.569 550.576Z" fill="white"/>
<path d="M216.272 546.996C218.928 549.736 224.161 548.567 225.167 546.589L221.64 466.307L204.912 468.786L216.272 546.996Z" fill="#DEE5FF"/>
<path d="M198.685 406.691C200.331 412.443 204.611 414.062 208.231 410.308C211.857 406.55 213.459 398.844 211.807 393.089C210.161 387.338 205.886 385.718 202.26 389.473C198.635 393.227 197.033 400.937 198.685 406.691Z" fill="#FF8066"/>
<path d="M192.623 404.865C194.276 410.617 200.438 412.699 204.059 408.942C207.685 405.187 209.284 397.478 207.636 391.726C205.983 385.972 201.711 384.352 198.084 388.11C194.463 391.864 190.97 399.11 192.623 404.865Z" fill="#FF8066"/>
<path d="M206.567 421.467L207.185 421.328C209.266 420.866 210.59 418.78 210.126 416.697L207.506 404.954C207.042 402.872 204.961 401.544 202.876 402.011L202.263 402.149C200.178 402.612 198.858 404.698 199.318 406.78L200.178 418.435C200.642 420.517 204.487 421.93 206.567 421.467Z" fill="#FF8066"/>
<path d="M213.566 405.729C213.566 405.729 212.943 411.149 205.245 410.065C199.724 409.287 201.334 400.299 195.808 399.396C189.739 398.407 188.638 390.902 191.029 388.021C193.421 385.14 200.113 383.633 204.956 385.771C209.799 387.909 217.268 387.781 213.566 405.729Z" fill="#191791"/>
<path d="M195.786 402.517C196.191 403.917 197.647 404.724 199.044 404.324C200.446 403.923 201.252 402.465 200.851 401.066C200.446 399.666 198.99 398.858 197.593 399.259C196.191 399.66 195.386 401.118 195.786 402.517Z" fill="#FF8066"/>
<path d="M222.341 465.262C220.373 454.485 224.429 447.131 224.258 435.67C225.188 416.543 219.025 411.317 212.419 412.007C212.419 412.007 206.447 413.767 205.093 414.467C190.739 421.864 186.91 424.147 187.539 432.73C187.474 446.864 189.556 462.72 189.853 469.674C192.812 479.449 219.06 472.259 222.341 465.262Z" fill="#0A8645"/>
<path d="M199.616 410.834L200.24 409.393C200.24 409.393 199.133 410.506 197.011 410.233C197.011 410.233 198.26 410.949 199.616 410.834Z" fill="#D4563B"/>
<path d="M208.67 495.531L215.727 485.39L208.67 488.498V495.531Z" fill="#ACAFF2"/>
<path d="M127.031 390.409C125.636 390.695 124.276 389.891 124.014 388.623L123.281 385.105C123.014 383.833 123.938 382.562 125.333 382.277C126.729 381.991 128.088 382.792 128.35 384.063L129.083 387.582C129.35 388.849 128.426 390.12 127.031 390.409Z" fill="#191791"/>
<path d="M125.149 389.624C126.117 396.272 125.01 404.724 124.265 413.08L129.639 416.864L132.652 411.674C132.335 403.558 130.951 395.671 128.822 388.596L125.149 389.624Z" fill="#191791"/>
<path d="M119.516 375.595L114.721 379.11C114.721 379.11 118.057 385.505 122.141 386.616L125.433 381.807C125.433 381.807 120.678 379.629 119.516 375.595Z" fill="white"/>
<path d="M128.618 373.572L132.449 375.596C132.449 375.596 133.84 384.254 129.655 385.808L124.858 381.807C124.858 381.807 128.618 380.099 128.618 373.572Z" fill="white"/>
<path d="M125.989 372.682C127.731 377.605 131.537 378.791 134.497 375.332C137.458 371.874 138.448 365.077 136.711 360.154C134.974 355.23 131.168 354.044 128.208 357.503C125.247 360.962 124.253 367.758 125.989 372.682Z" fill="#FF8066"/>
<path d="M120.62 371.408C122.357 376.332 130.714 379.617 133.671 376.158C136.634 372.699 134.744 364.106 133.007 359.182C131.27 354.262 127.46 353.073 124.498 356.535C121.54 359.994 118.883 366.484 120.62 371.408Z" fill="#FF8066"/>
<path d="M126.639 359.786C126.639 359.786 127.411 369.436 119.722 371.338C119.722 371.338 111.297 366.086 117.915 357.04C123.747 349.068 132.449 355.575 132.449 355.575L126.639 359.786Z" fill="#191791"/>
<path d="M137.518 366.642C137.518 366.642 136.64 362.483 131.686 360.574L135.72 358.348C135.72 358.348 139.727 359.405 137.518 366.642Z" fill="#191791"/>
<path d="M122.465 365.3C124.212 363.106 127.781 363.25 132.795 365.251C133.562 365.556 134.388 365.717 135.2 365.576C139 364.926 139.726 360.261 139.726 360.261C140.647 357.157 138.625 355.672 135.521 354.753L127.443 352.355C122.872 350.969 118.278 354.611 117.353 357.715L117.122 358.225C116.206 361.329 119.361 364.377 122.465 365.3Z" fill="#191791"/>
<path d="M118.878 371.013C119.301 372.209 120.61 372.836 121.809 372.416C123.004 371.992 123.63 370.678 123.211 369.483C122.788 368.284 121.474 367.657 120.279 368.08C119.08 368.504 118.454 369.815 118.878 371.013Z" fill="#FF8066"/>
<path d="M322.134 421.358L331.387 410.194H331.394L341.227 396.818C341.54 396.641 341.867 396.535 342.193 396.47L367.199 384.353L392.557 397.583L352.906 416.766L352.613 416.27C352.333 416.812 351.979 417.308 351.526 417.732L338.693 419.109L322.134 421.358ZM398.017 394.943L372.652 381.708L385.091 375.684L389.171 377.846C389.531 378.036 389.924 378.128 390.304 378.128C391.177 378.128 392.024 377.655 392.457 376.83C393.084 375.641 392.631 374.17 391.444 373.542L390.518 373.049L440.235 348.96L465.974 362.39C465.86 362.453 465.734 362.515 465.614 362.578C465.54 362.611 465.474 362.641 465.407 362.67V362.677L460.034 365.196V365.192C460.101 365.16 460.174 365.134 460.247 365.097C460.754 364.822 461.201 364.506 461.621 364.171L398.017 394.943ZM471.353 359.704L445.688 346.315L458.107 340.294C458.387 340.399 458.674 340.448 458.961 340.448C459.834 340.448 460.681 339.975 461.114 339.151C461.181 339.023 461.234 338.892 461.281 338.76L462.481 338.179V338.185C462.547 338.149 462.621 338.113 462.687 338.081C463.101 337.867 463.514 337.709 463.92 337.578L474.767 332.332V332.339C474.833 332.303 474.9 332.267 474.967 332.233C476.593 331.448 478.266 331.077 479.886 331.077C484.073 331.077 487.906 333.567 489.493 337.824C491.699 343.723 488.773 350.786 482.96 353.6C482.886 353.634 482.813 353.663 482.746 353.696V353.699L473.073 358.38C472.573 358.876 472.007 359.326 471.353 359.704Z" fill="#A8C4E5"/>
<path d="M458.962 340.447C458.677 340.447 458.392 340.398 458.113 340.293L458.496 340.11L458.483 340.113L461.282 338.759C461.237 338.891 461.185 339.022 461.12 339.15C460.679 339.975 459.837 340.447 458.962 340.447Z" fill="#5776BC"/>
<path d="M465.976 362.391L440.235 348.959L445.684 346.315L471.353 359.704C471.209 359.789 471.065 359.868 470.915 359.947C470.843 359.979 470.771 360.009 470.706 360.039V360.045L466.931 361.816C466.624 362.019 466.31 362.213 465.976 362.391Z" fill="#5776BC"/>
<path d="M390.307 378.127C389.925 378.127 389.537 378.035 389.173 377.845L385.094 375.683L390.519 373.049L391.446 373.541C392.634 374.169 393.089 375.64 392.465 376.829C392.022 377.654 391.18 378.127 390.307 378.127Z" fill="#5776BC"/>
<path d="M392.559 397.583L367.2 384.352L372.652 381.708L398.017 394.942L392.559 397.583Z" fill="#5776BC"/>
<path d="M473.789 328.327C473.722 328.36 473.649 328.399 473.589 328.432L473.582 328.429L452.726 338.516C446.913 341.332 443.983 348.394 446.194 354.296C448.398 360.196 454.897 362.699 460.71 359.884L481.567 349.796V349.79C481.633 349.757 481.706 349.727 481.773 349.694C487.593 346.883 490.516 339.817 488.312 333.918C486.108 328.015 479.602 325.516 473.789 328.327Z" fill="#3072FF"/>
<path d="M481.771 349.695L351.726 412.861L345.08 401.693L471.669 340.209C490.713 331.078 492.748 342.962 481.771 349.695Z" fill="#265AC9"/>
<path d="M345.084 401.693C343.945 396.075 340.011 400.034 340.855 392.639L459.59 335.101C468.323 333.495 471.452 335.87 472.172 339.959L345.084 401.693Z" fill="#3072FF"/>
<path d="M340.045 392.913L322.463 416.816L350.348 413.827C356.576 407.934 346.011 389.493 340.045 392.913Z" fill="#E1EAF4"/>
<path d="M320.949 417.453L330.21 406.288C334.998 407.251 337.435 410.216 337.509 415.203L320.949 417.453Z" fill="#0E2E82"/>
<path d="M38.5066 451.397C40.5008 450.871 42.4018 450.195 44.1568 449.357C49.1302 446.992 52.0728 443.786 52.9199 440.403C53.2807 439.546 53.6252 434.517 53.6212 432.125C53.7711 431.465 53.8481 430.798 53.8481 430.132C53.8481 428.387 53.3293 426.636 52.2917 424.974C52.1458 424.745 51.9917 424.515 51.8255 424.285C53.4712 424.984 54.9992 425.802 56.3733 426.742C65.7647 433.163 64.1839 442.682 52.8308 448.001C48.5951 449.988 43.5975 451.108 38.5066 451.397Z" fill="#DCE7F5"/>
<path d="M53.5644 430.969C53.7833 431.954 53.3654 439.345 52.9197 440.403C52.076 443.786 49.131 446.992 44.1603 449.357C33.2558 454.543 16.7518 453.706 7.29991 447.481C2.89434 444.581 0.502506 441.635 0.44679 437.952C0.303519 435.961 0.247803 430.404 0.247803 430.404C0.422911 429.786 0.87263 429.809 1.39 429.835C1.88746 429.855 2.45259 429.878 2.89037 429.323C4.36287 427.086 6.83029 425.033 10.2887 423.387C21.1972 418.201 37.7012 419.042 47.1531 425.263C51.1288 427.884 53.2858 427.802 53.5644 430.969Z" fill="#88BDEB"/>
<path d="M47.4726 421.336C38.0758 414.914 21.2615 414.02 9.90931 419.342C-1.44285 424.66 -3.02232 434.179 6.37051 440.6C15.7633 447.026 32.5816 447.919 43.9298 442.598C55.278 437.276 56.8654 427.757 47.4726 421.336Z" fill="white"/>
<path d="M47.4726 420.514C38.0758 414.09 21.2615 413.196 9.90931 418.517C-1.44285 423.838 -3.02232 433.358 6.37051 439.779C15.7633 446.201 32.5816 447.094 43.9298 441.776C55.278 436.455 56.8654 426.936 47.4726 420.514Z" fill="#E0EEFF"/>
<path d="M47.4752 420.514L47.6145 420.31C42.2811 416.667 34.6273 414.798 26.9177 414.798C20.8918 414.798 14.826 415.941 9.80708 418.293C6.59511 419.801 4.14333 421.644 2.49556 423.674C0.847778 425.704 0 427.924 0 430.161C0 431.905 0.513461 433.653 1.55626 435.315C2.5911 436.98 4.15131 438.557 6.23292 439.982C11.5663 443.625 19.2161 445.491 26.9257 445.491C32.9556 445.491 39.0173 444.351 44.0363 441.996C47.2523 440.492 49.6961 438.646 51.3478 436.615C52.9956 434.589 53.8473 432.365 53.8473 430.131C53.8473 428.387 53.3299 426.637 52.2911 424.974C51.2523 423.312 49.6961 421.733 47.6145 420.31L47.4752 420.514L47.3318 420.717C49.3737 422.107 50.8782 423.641 51.8732 425.237C52.8682 426.83 53.3538 428.486 53.3538 430.131C53.3538 432.24 52.5578 434.346 50.9657 436.307C49.3776 438.264 46.9896 440.071 43.8293 441.553C38.89 443.865 32.8919 445.001 26.9257 444.998C19.2957 445.001 11.7255 443.142 6.51153 439.575C4.4737 438.182 2.96521 436.648 1.97017 435.055C0.975135 433.459 0.489588 431.807 0.489588 430.161C0.489588 428.052 1.2896 425.943 2.87767 423.986C4.46973 422.028 6.85781 420.221 10.0141 418.74C14.9534 416.424 20.9555 415.291 26.9177 415.291C34.5477 415.291 42.1218 417.15 47.3318 420.717L47.4752 420.514Z" fill="#3072FF"/>
<path d="M41.2681 423.014C34.7026 418.527 22.9438 417.899 15.0099 421.621C7.07611 425.339 5.96412 431.994 12.5336 436.484C19.0991 440.975 30.8579 441.599 38.7917 437.877C46.7295 434.159 47.8376 427.504 41.2681 423.014Z" fill="white"/>
<path d="M41.2663 423.014L41.4039 422.81C37.6579 420.254 32.3003 418.947 26.8995 418.947C22.6779 418.947 18.4287 419.746 14.9068 421.398C12.6505 422.452 10.9289 423.75 9.76536 425.178C8.60579 426.607 8.00439 428.177 8.00439 429.758C8.00439 430.992 8.36995 432.231 9.105 433.404C9.83612 434.576 10.9328 435.686 12.395 436.688C16.141 439.244 21.5026 440.551 26.9034 440.551C31.125 440.551 35.3742 439.753 38.8961 438.101C41.1524 437.046 42.874 435.749 44.0336 434.32C45.1971 432.891 45.7985 431.321 45.7985 429.738C45.7985 428.506 45.429 427.268 44.6979 426.095C43.9668 424.922 42.8701 423.812 41.4039 422.81L41.2663 423.014L41.1288 423.217C42.5438 424.186 43.5933 425.254 44.2812 426.358C44.973 427.461 45.3071 428.605 45.3071 429.738C45.3071 431.193 44.7529 432.651 43.6523 434.008C42.5478 435.368 40.889 436.623 38.6878 437.654C35.2484 439.267 31.0621 440.058 26.9034 440.058C21.5812 440.062 16.2983 438.761 12.6741 436.281C11.259 435.312 10.2095 434.244 9.52165 433.141C8.82984 432.037 8.49574 430.894 8.49574 429.758C8.49574 428.302 9.04603 426.847 10.1506 425.491C11.2551 424.131 12.9139 422.876 15.1151 421.845C18.5506 420.229 22.7368 419.44 26.8995 419.44C32.2217 419.437 37.5007 420.737 41.1288 423.217L41.2663 423.014Z" fill="#3072FF"/>
<path d="M8.51978 429.27C8.62975 427.979 9.17179 426.695 10.1537 425.489C11.2574 424.13 12.9148 422.875 15.1182 421.844C18.5549 420.231 22.7378 419.439 26.8972 419.439H26.9011C26.905 419.439 26.9089 419.439 26.9129 419.439C32.2309 419.439 37.5096 420.737 41.1348 423.217L41.2723 423.013L41.1348 423.217C42.5488 424.186 43.5975 425.253 44.2848 426.357C44.8779 427.303 45.2078 428.278 45.2903 429.254C44.76 427.493 43.4286 425.782 41.2723 424.307C37.5843 421.788 32.2623 420.484 26.9011 420.484C22.7103 420.484 18.492 421.282 15.0121 422.911C11.4301 424.59 9.24246 426.866 8.51978 429.27Z" fill="#C5DFF6"/>
<path d="M8.29124 430.404C7.93747 427.155 10.2409 423.854 15.0128 421.62C18.4916 419.988 22.7093 419.193 26.8995 419.193C32.261 419.193 37.5832 420.494 41.2703 423.013L41.1327 423.217C37.5086 420.737 32.2296 419.439 26.9112 419.439C26.9073 419.439 26.9034 419.439 26.8995 419.439C22.7368 419.439 18.5545 420.231 15.119 421.844C12.9138 422.875 11.259 424.13 10.1544 425.49C9.17174 426.695 8.62928 427.98 8.51922 429.27C8.40915 429.648 8.33055 430.026 8.29124 430.404ZM45.5195 430.387C45.4762 430.006 45.4015 429.628 45.2915 429.254C45.2089 428.279 44.8748 427.303 44.2852 426.357C43.5973 425.253 42.5478 424.186 41.1327 423.217L41.2703 423.013C44.4149 425.161 45.7986 427.805 45.5195 430.387Z" fill="#294797"/>
<path d="M18.4271 435.758L16.3333 434.366L18.6563 433.216C17.5453 432.286 16.6401 430.982 16.6285 429.81L20.3073 429.593C20.5248 430.762 21.0065 431.626 22.0437 432.316C22.7546 432.789 23.415 433.016 24.0598 433.016C24.5143 433.016 24.9533 432.904 25.3923 432.687C27.7852 431.501 22.0437 427.731 26.2275 425.658C27.3346 425.109 28.5777 424.84 29.848 424.84C31.1765 424.84 32.5361 425.135 33.8025 425.717L36.1955 424.531L38.2855 425.927L35.9391 427.086C37.1084 428.111 37.3609 429.139 37.2482 430.174L33.7016 430.076C33.6938 429.179 33.418 428.539 32.509 427.934C31.8952 427.52 31.2814 427.3 30.6715 427.3C30.2597 427.3 29.848 427.399 29.4284 427.606C27.2219 428.699 33.1033 432.401 28.667 434.599C27.5405 435.157 26.2508 435.456 24.8989 435.456C23.5743 435.456 22.1913 435.17 20.8433 434.563L18.4271 435.758Z" fill="#CCE3F6"/>
<path d="M27.0641 446.345L27.129 452.764C27.1328 452.898 27.2435 453.007 27.381 453.007C27.5185 453.003 27.6255 452.892 27.6216 452.757L27.5567 446.339C27.5529 446.204 27.446 446.092 27.3085 446.095C27.171 446.095 27.0602 446.207 27.0641 446.345Z" fill="#3072FF"/>
<path d="M33.9295 445.866L33.9488 452.11C33.9488 452.245 34.0608 452.356 34.1998 452.356C34.3349 452.353 34.443 452.245 34.443 452.107L34.4199 445.863C34.416 445.728 34.3079 445.616 34.1689 445.616C34.0377 445.62 33.9257 445.728 33.9295 445.866Z" fill="#3072FF"/>
<path d="M40.4475 444.286L40.4748 450.53C40.4748 450.668 40.584 450.776 40.7206 450.776C40.8571 450.776 40.9663 450.665 40.9663 450.53L40.939 444.286C40.939 444.148 40.8298 444.039 40.6933 444.039C40.5567 444.039 40.4475 444.151 40.4475 444.286Z" fill="#3072FF"/>
<path d="M46.2998 441.621L46.3234 447.38C46.3234 447.514 46.4336 447.626 46.5714 447.623C46.7053 447.623 46.8155 447.514 46.8155 447.376L46.7919 441.618C46.7919 441.483 46.6817 441.372 46.5478 441.372C46.41 441.375 46.2998 441.483 46.2998 441.621Z" fill="#3072FF"/>
<path d="M51.0878 437.572L50.953 443.422C50.949 443.56 51.0601 443.672 51.1949 443.675C51.3298 443.678 51.4408 443.57 51.4447 443.435L51.5796 437.581C51.5836 437.447 51.4765 437.332 51.3417 437.329C51.2029 437.326 51.0918 437.434 51.0878 437.572Z" fill="#3072FF"/>
<path d="M19.8836 445.862L19.8572 452.106C19.8572 452.244 19.9666 452.352 20.1025 452.356C20.2384 452.356 20.3479 452.244 20.3517 452.109L20.3743 445.865C20.3743 445.727 20.2648 445.619 20.1327 445.616C19.9931 445.616 19.8836 445.727 19.8836 445.862Z" fill="#3072FF"/>
<path d="M13.3577 444.286L13.3315 450.53C13.3315 450.665 13.4399 450.777 13.5781 450.777C13.7125 450.777 13.8246 450.668 13.8246 450.53L13.8507 444.286C13.8507 444.151 13.7387 444.04 13.6042 444.04C13.4698 444.04 13.3577 444.148 13.3577 444.286Z" fill="#3072FF"/>
<path d="M7.50985 441.618L7.48764 447.377C7.48394 447.514 7.59489 447.623 7.72803 447.623C7.86856 447.626 7.97584 447.514 7.97954 447.38L8.00171 441.622C8.00171 441.484 7.89076 441.375 7.75392 441.372C7.61709 441.372 7.50985 441.484 7.50985 441.618Z" fill="#3072FF"/>
<path d="M2.72006 437.581L2.85586 443.434C2.85953 443.569 2.96963 443.678 3.10543 443.674C3.24123 443.671 3.35136 443.559 3.34769 443.421L3.21188 437.571C3.21188 437.433 3.09811 437.325 2.96231 437.328C2.82652 437.331 2.71639 437.446 2.72006 437.581Z" fill="#3072FF"/>
</svg>
